<svg width="1440" height="1198" viewBox="0 0 1440 1198" fill="none" xmlns="http://www.w3.org/2000/svg">
<g clip-path="url(#clip0_239_628)">
<rect width="1440" height="1198" fill="white"/>
<g filter="url(#filter0_d_239_628)">
<rect x="-8" width="1448" height="1221" fill="#161927"/>
</g>
<path d="M-7.89138 1264.5C15.0859 1188.59 36.8211 1110.16 61.5817 1037.78C85.8517 966.829 113.583 903.109 144.52 850.888C159.464 825.658 175.417 803.818 192.491 789.166C211.392 772.947 231.347 767.247 251.229 765.915C272.291 764.505 293.337 768.344 314.309 772.81C335.281 777.276 355.248 779.382 375.815 777.501C415.983 773.839 455.704 757.022 494.938 735.809C499.984 733.076 505.027 730.275 510.065 727.425C510.357 727.258 510.233 726.122 509.941 726.289C469.796 748.991 429.23 768.462 388.092 774.808C367.673 777.962 347.184 777.893 326.776 774.211C305.649 770.391 284.607 764.916 263.405 764.466C243.2 764.035 222.532 766.953 202.923 779.989C185.735 791.409 169.502 810.468 154.348 833.66C139.193 856.852 124.895 884.393 111.142 912.942C96.4623 943.411 82.7873 976.525 70.0079 1012C44.7177 1082.18 22.8579 1159.49 0.320629 1235.2C-2.53352 1244.8 -5.40325 1254.37 -8.28855 1263.9C-8.47156 1264.5 -8.06661 1265.08 -7.8836 1264.5H-7.89138Z" fill="white"/>
<path d="M-12.5371 1136.64C-0.765993 1062.48 14.787 991.864 33.993 928.185C53.2225 864.427 76.3509 807.166 103.398 764.484C117.6 742.075 132.845 724.027 148.816 711.083C165.785 697.336 183.407 689.762 201.157 686.186C219.438 682.502 237.922 681.923 256.254 683.207C276.205 684.598 296.122 688.733 316.089 688.645C334.155 688.557 351.738 682.619 369.098 669.92C385.786 657.712 401.831 640.761 417.923 624.427C421.997 620.292 426.076 616.186 430.17 612.179C430.447 611.905 430.326 610.768 430.045 611.042C413.469 627.278 397.151 645.287 380.307 659.74C363.438 674.212 346.02 684.491 328.172 686.783C307.947 689.38 287.649 685.255 267.451 683.05C248.421 680.983 229.312 680.885 210.286 683.472C192.879 685.843 175.519 691.32 158.651 702.588C142.263 713.543 126.452 729.749 111.688 750.698C84.0669 789.881 60.232 844.497 40.2922 906.129C20.1807 968.289 3.76524 1037.99 -8.87616 1111.45C-10.2929 1119.69 -11.6589 1127.98 -12.982 1136.31C-13.0952 1137.02 -12.6424 1137.32 -12.5293 1136.62L-12.5371 1136.64Z" fill="white"/>
<path d="M25.312 1228.52C26.5404 1212.62 30.3618 1199.08 34.5264 1187.09C38.691 1175.09 42.9375 1164.96 47.1489 1153.94C57.5682 1126.64 68.5607 1100.76 79.7755 1075.54C98.602 1033.18 117.791 988.969 140.782 961.221C153.674 945.664 167.521 936.274 181.754 932.877C182.05 932.808 182.054 931.633 181.754 931.702C169.272 934.678 157.055 942.149 145.52 954.534C134.286 966.597 123.886 982.957 114.11 1001.28C103.562 1021.04 93.6809 1042.96 83.8426 1064.87C72.2184 1090.76 60.7775 1117.2 49.9097 1145.09C44.7742 1158.28 39.467 1171.29 34.6005 1185.11C30.2253 1197.54 26.1426 1211.6 24.8636 1228.21C24.8051 1228.94 25.2575 1229.27 25.3159 1228.52H25.312Z" fill="white"/>
<path d="M5.37305 1199.07C12.1108 1163.48 23.0115 1133.84 34.1579 1106.57C45.4448 1078.94 57.1413 1052.27 68.6311 1025.18C93.1165 967.437 119.455 912.321 150.175 876.585C166.241 857.897 183.189 846.253 200.711 840.108C218.232 833.963 236.557 832.556 254.523 831.531C273.297 830.456 292.004 828.082 310.719 824.214C320.348 822.221 329.965 819.993 339.586 817.766C348.158 815.773 356.796 814.464 365.289 810.811C396.844 797.232 423.818 753.711 449.392 707.816C452.677 701.915 455.955 695.976 459.232 690.046C459.474 689.606 459.24 688.59 458.994 689.03C433.147 735.833 406.707 784.356 375.284 804.295C366.756 809.707 358.134 812.305 349.391 814.318C339.801 816.525 330.211 818.802 320.617 820.912C301.668 825.093 282.688 828.678 263.668 829.831C228.481 831.96 192.354 832.322 159.168 865.576C128.167 896.641 101.376 948.612 76.8709 1004.46C64.9871 1031.54 53.4232 1059.55 41.6799 1087.01C29.9365 1114.47 18.9891 1141.17 10.4761 1173.93C8.42788 1181.81 6.5786 1189.99 4.9673 1198.48C4.83855 1199.16 5.2443 1199.75 5.37305 1199.08V1199.07Z" fill="#282D6E"/>
<path d="M121.848 989.228C163.688 943.583 210.269 940.909 254.919 927.259C300.092 913.454 345.116 895.157 390.624 889.431C416.169 886.223 441.816 887.107 467.225 894.807C467.521 894.895 467.521 893.728 467.225 893.641C421.389 879.738 375.144 888.352 329.484 902.06C306.626 908.924 283.831 917.032 260.989 924.207C238.093 931.391 215.068 935.854 192.195 943.515C168.105 951.594 143.976 963.814 121.614 988.217C121.337 988.518 121.575 989.52 121.852 989.228H121.848Z" fill="#FDCE82"/>
<path d="M174.97 660.909C177.619 660.909 179.765 655.684 179.765 649.237C179.765 642.791 177.619 637.565 174.97 637.565C172.322 637.565 170.176 642.791 170.176 649.237C170.176 655.684 172.322 660.909 174.97 660.909Z" fill="white"/>
<path d="M300.002 917.693C301.224 917.693 302.215 915.254 302.215 912.246C302.215 909.238 301.224 906.799 300.002 906.799C298.78 906.799 297.789 909.238 297.789 912.246C297.789 915.254 298.78 917.693 300.002 917.693Z" fill="white"/>
<path d="M209.271 986.168C210.493 986.168 211.484 983.73 211.484 980.721C211.484 977.713 210.493 975.274 209.271 975.274C208.048 975.274 207.058 977.713 207.058 980.721C207.058 983.73 208.048 986.168 209.271 986.168Z" fill="white"/>
<path d="M294.838 838.323C296.06 838.323 297.051 835.885 297.051 832.876C297.051 829.868 296.06 827.429 294.838 827.429C293.616 827.429 292.625 829.868 292.625 832.876C292.625 835.885 293.616 838.323 294.838 838.323Z" fill="white"/>
<path d="M246.892 788.523C248.114 788.523 249.105 786.084 249.105 783.076C249.105 780.068 248.114 777.629 246.892 777.629C245.669 777.629 244.679 780.068 244.679 783.076C244.679 786.084 245.669 788.523 246.892 788.523Z" fill="white"/>
<path d="M181.61 936.368C182.628 936.368 183.454 934.278 183.454 931.699C183.454 929.121 182.628 927.03 181.61 927.03C180.591 927.03 179.766 929.121 179.766 931.699C179.766 934.278 180.591 936.368 181.61 936.368Z" fill="white"/>
<path d="M184.928 858.555C185.743 858.555 186.404 856.813 186.404 854.664C186.404 852.515 185.743 850.773 184.928 850.773C184.114 850.773 183.453 852.515 183.453 854.664C183.453 856.813 184.114 858.555 184.928 858.555Z" fill="white"/>
<path d="M-73.5212 1274.52C-72.9988 1244.06 -65.6776 1216.89 -60.3367 1190.47C-54.3488 1160.85 -48.2945 1131.33 -42.1662 1101.89C-31.1063 1048.77 -19.9841 995.633 -8.21085 943.492C1.44556 900.742 12.1234 858.609 26.3175 824.331C33.4633 807.084 41.459 792.088 50.1954 780.29C60.1247 766.888 70.9623 758.22 81.7298 750.14C104.922 732.737 128.721 720.959 152.549 710.589C164.419 705.424 176.313 700.641 188.2 695.74C200.086 690.838 212.448 685.194 224.623 680.704C250.465 671.176 276.491 664.973 302.295 654.79C325.502 645.624 348.203 632.329 370.093 610.671C389.959 591.018 408.866 565.769 426.94 537.312C445.539 508.032 463.285 475.486 480.781 442.245C485.167 433.91 489.537 425.536 493.903 417.133C494.137 416.683 493.903 415.656 493.665 416.116C475.873 450.325 457.998 484.339 439.372 515.653C421.412 545.832 402.715 573.409 382.997 595.713C362.042 619.416 340.114 636.438 317.53 647.042C291.493 659.27 265.116 665.913 238.872 674.57C214.374 682.66 190.028 693.675 165.655 703.83C141.614 713.847 117.568 724.618 93.9904 740.26C73.165 754.073 52.2889 769.989 35.0734 803.67C19.8072 833.536 8.12357 872.979 -1.89929 914.144C-13.6998 962.607 -24.093 1013.42 -34.6734 1063.59C-40.868 1092.96 -46.9885 1122.41 -53.035 1151.97C-56.0875 1166.88 -59.1204 1181.8 -62.1339 1196.75C-64.7965 1209.94 -67.7399 1222.83 -70.1101 1236.37C-72.2347 1248.51 -73.7629 1261.18 -73.989 1274.49C-74.0007 1275.25 -73.5329 1275.25 -73.5212 1274.49V1274.52Z" fill="white"/>
<path d="M-52.8914 1307.5C-29.9141 1231.59 -8.17894 1153.16 16.5817 1080.78C40.8517 1009.83 68.5834 946.109 99.5196 893.888C114.464 868.658 130.417 846.818 147.491 832.166C166.392 815.947 186.347 810.247 206.229 808.915C227.291 807.505 248.337 811.344 269.309 815.81C290.281 820.276 310.248 822.382 330.815 820.501C370.983 816.839 410.704 800.022 449.938 778.809C454.984 776.076 460.027 773.275 465.065 770.425C465.357 770.258 465.233 769.122 464.941 769.289C424.796 791.991 384.23 811.462 343.092 817.808C322.673 820.962 302.184 820.893 281.776 817.211C260.649 813.391 239.607 807.916 218.405 807.466C198.2 807.035 177.532 809.953 157.923 822.989C140.735 834.409 124.502 853.468 109.348 876.66C94.1929 899.852 79.8948 927.393 66.1419 955.942C51.4623 986.411 37.7873 1019.52 25.0079 1055C-0.28231 1125.18 -22.1421 1202.49 -44.6794 1278.2C-47.5335 1287.8 -50.4033 1297.37 -53.2886 1306.9C-53.4716 1307.5 -53.0666 1308.08 -52.8836 1307.5H-52.8914Z" fill="white"/>
<path d="M-128.541 1358.04C-126.989 1332.47 -120.925 1310.35 -114.923 1290.01C-111.984 1280.05 -108.929 1270.31 -106.044 1260.26C-102.856 1249.14 -100.077 1237.41 -97.3454 1225.58C-91.2848 1199.35 -85.6491 1172.52 -79.5652 1146.32C-74.1204 1122.87 -68.2586 1100.02 -61.9292 1078C-49.8042 1035.8 -35.8864 996.585 -19.7665 963.746C-2.70341 928.978 16.8657 902.699 37.3469 883.039C77.1789 844.796 119.724 838.813 161.481 823.001C205.312 806.396 248.507 778.687 290.089 740.091C331.659 701.505 371.714 651.923 408.662 590.319C413.128 582.868 417.548 575.241 421.921 567.447C422.162 567.016 421.932 565.998 421.683 566.429C385.066 631.705 345.067 684.606 303.344 726.09C261.638 767.565 218.15 797.809 173.941 816.774C132.195 834.691 89.2766 838.598 48.7391 871.682C28.2385 888.414 8.19388 911.697 -9.49667 942.803C-26.3649 972.46 -41.0973 1009.2 -53.9238 1049.53C-67.7792 1093.11 -79.0234 1140.73 -89.7687 1189.4C-95.2173 1214.07 -100.518 1239.26 -107.155 1262.09C-113.224 1282.95 -120.04 1302.84 -124.733 1325.98C-126.763 1336 -128.322 1346.58 -128.997 1357.72C-129.043 1358.47 -128.591 1358.78 -128.545 1358.04H-128.541Z" fill="#282D6E"/>
<path d="M-19.687 1271.52C-18.4587 1255.62 -14.6372 1242.08 -10.4726 1230.09C-6.308 1218.09 -2.06151 1207.96 2.14988 1196.94C12.5692 1169.64 23.5617 1143.76 34.7765 1118.54C53.603 1076.18 72.7922 1031.97 95.7832 1004.22C108.675 988.664 122.522 979.274 136.755 975.877C137.051 975.808 137.055 974.633 136.755 974.702C124.273 977.678 112.056 985.149 100.521 997.534C89.2868 1009.6 78.887 1025.96 69.1111 1044.28C58.5631 1064.04 48.6819 1085.96 38.8436 1107.87C27.2194 1133.76 15.7784 1160.2 4.91069 1188.09C-0.224871 1201.28 -5.53201 1214.29 -10.3985 1228.11C-14.7737 1240.54 -18.8564 1254.6 -20.1354 1271.21C-20.1939 1271.94 -19.7416 1272.27 -19.6831 1271.52H-19.687Z" fill="white"/>
<path d="M-23.3867 1262.34C-3.01587 1193.85 21.0938 1132.63 46.9813 1077.31C59.9289 1049.64 73.3717 1023.42 87.2238 998.67C93.8633 986.805 100.542 975.116 107.735 965.426C114.928 955.736 122.538 947.692 130.312 941.196C145.545 928.459 161.424 921.473 177.311 916.31C195.008 910.568 212.778 906.463 230.576 903.396C249.04 900.212 267.524 897.88 285.984 894.47C304.043 891.129 322.305 887.622 340.153 879.705C348.473 876.011 356.941 871.201 364.738 862.833C370.953 856.161 376.672 846.922 381.959 836.399C393.374 813.668 402.79 785.342 412.084 757.379C414.279 750.776 416.474 744.162 418.7 737.617C418.895 737.049 418.564 736.206 418.369 736.785C408.981 764.424 400.057 793.21 389.538 818.253C384.177 831.02 378.399 842.816 372.021 852.242C365.007 862.608 357.331 868.937 349.448 873.689C340.586 879.029 331.541 882.135 322.492 884.712C313.287 887.328 304.066 889.66 294.83 891.57C276.257 895.401 257.641 897.821 239.044 900.819C220.447 903.818 202.708 907.541 184.602 912.89C168.91 917.525 153.202 923.315 137.962 934.083C122.585 944.959 107.953 961.233 94.7678 983.993C81.5823 1006.75 68.0304 1032.25 55.2855 1058.41C29.0433 1112.3 4.46186 1171.95 -16.6809 1238.63C-19.0981 1246.24 -21.4646 1253.96 -23.7843 1261.76C-23.9637 1262.37 -23.5582 1262.96 -23.3789 1262.36L-23.3867 1262.34Z" fill="white"/>
<path d="M-39.626 1242.07C-32.8882 1206.48 -21.9876 1176.84 -10.8411 1149.57C0.445747 1121.94 12.1423 1095.27 23.632 1068.18C48.1175 1010.44 74.4561 955.321 105.176 919.585C121.242 900.897 138.19 889.253 155.711 883.108C173.233 876.963 191.558 875.556 209.524 874.531C228.298 873.456 247.005 871.082 265.72 867.214C275.349 865.221 284.966 862.993 294.587 860.766C303.159 858.773 311.797 857.464 320.29 853.811C351.845 840.232 378.819 796.711 404.393 750.816C407.678 744.915 410.956 738.976 414.233 733.046C414.475 732.606 414.241 731.59 413.995 732.03C388.148 778.833 361.708 827.356 330.285 847.295C321.757 852.707 313.135 855.305 304.392 857.318C294.802 859.525 285.212 861.802 275.618 863.912C256.669 868.093 237.689 871.678 218.669 872.831C183.482 874.96 147.355 875.322 114.169 908.576C83.168 939.641 56.3768 991.612 31.8719 1047.46C19.9881 1074.54 8.4242 1102.55 -3.31915 1130.01C-15.0625 1157.47 -26.0099 1184.17 -34.5229 1216.93C-36.5711 1224.81 -38.4204 1232.99 -40.0317 1241.48C-40.1605 1242.16 -39.7547 1242.75 -39.626 1242.08V1242.07Z" fill="#282D6E"/>
<path d="M-19.7521 1287.33C-9.09907 1254.96 1.14091 1221.72 11.942 1189.64C22.182 1159.23 33.1623 1130.83 44.5362 1103.09C55.1229 1077.27 66.1968 1051.6 79.1292 1033.28C85.5078 1024.24 92.1669 1017.96 99.3248 1014.17C107.874 1009.65 116.473 1005.7 125.096 1002.19C160.426 987.861 196.18 981.278 231.883 976.053C267.564 970.828 303.298 968.532 338.983 963.59C371.873 959.029 404.977 949.839 436.738 927.101C440.552 924.367 444.34 921.427 448.104 918.282C448.388 918.047 448.267 916.915 447.979 917.149C416.024 943.822 382.339 955.152 348.848 960.885C331.579 963.844 314.271 965.163 296.978 966.98C278.762 968.894 260.546 970.916 242.342 973.396C206.872 978.221 171.332 984.081 136.151 996.769C127.341 999.943 118.558 1003.56 109.81 1007.71C102.216 1011.31 94.4892 1014.47 87.3119 1021.9C74.1067 1035.57 62.7484 1058.91 52.3253 1082.92C41.115 1108.76 30.2088 1135.82 20.074 1164.3C8.85207 1195.85 -1.55156 1229.12 -12.1305 1262.02C-14.7646 1270.21 -17.4103 1278.37 -20.0833 1286.48C-20.2742 1287.06 -19.943 1287.89 -19.7521 1287.31V1287.33Z" fill="white"/>
<path d="M77.5943 1025.88C87.8554 1012.15 97.2598 993.727 107.058 977.463C117.165 960.678 127.873 947.571 138.931 937.227C160.887 916.698 183.823 907.669 206.765 903.992C218.983 902.041 231.195 899.728 243.433 899.031C255.671 898.335 266.995 899.61 278.77 900.894C301.866 903.404 325.302 906.149 348.118 893.1C370.137 880.502 391.929 860.786 412.118 831.845C414.652 828.218 417.155 824.414 419.636 820.483C419.862 820.12 419.659 819.11 419.432 819.463C399.297 851.443 377.394 872.963 355.102 887.571C343.634 895.09 332.079 899.502 320.338 900.982C308.587 902.463 296.815 901.6 285.064 900.394C273.393 899.198 261.721 897.59 250.044 897.649C237.792 897.718 225.557 899.727 213.329 901.757C190.534 905.522 167.911 911.845 145.839 929.953C135.061 938.796 124.383 949.982 114.355 964.669C104.204 979.531 94.7895 998.286 84.8051 1014.04C82.3748 1017.87 79.9079 1021.51 77.3943 1024.87C77.1609 1025.19 77.3643 1026.2 77.5976 1025.89L77.5943 1025.88Z" fill="#282D6E"/>
<path d="M129.97 703.909C132.619 703.909 134.765 698.684 134.765 692.237C134.765 685.791 132.619 680.565 129.97 680.565C127.322 680.565 125.176 685.791 125.176 692.237C125.176 698.684 127.322 703.909 129.97 703.909Z" fill="white"/>
<path d="M255.002 960.693C256.224 960.693 257.215 958.255 257.215 955.246C257.215 952.238 256.224 949.799 255.002 949.799C253.78 949.799 252.789 952.238 252.789 955.246C252.789 958.255 253.78 960.693 255.002 960.693Z" fill="white"/>
<path d="M164.272 1029.17C165.494 1029.17 166.484 1026.73 166.484 1023.72C166.484 1020.71 165.494 1018.27 164.272 1018.27C163.049 1018.27 162.059 1020.71 162.059 1023.72C162.059 1026.73 163.049 1029.17 164.272 1029.17Z" fill="white"/>
<path d="M249.838 881.323C251.06 881.323 252.051 878.885 252.051 875.876C252.051 872.868 251.06 870.429 249.838 870.429C248.616 870.429 247.625 872.868 247.625 875.876C247.625 878.885 248.616 881.323 249.838 881.323Z" fill="white"/>
<path d="M201.892 831.523C203.114 831.523 204.105 829.084 204.105 826.076C204.105 823.068 203.114 820.629 201.892 820.629C200.669 820.629 199.679 823.068 199.679 826.076C199.679 829.084 200.669 831.523 201.892 831.523Z" fill="white"/>
<path d="M136.61 979.368C137.628 979.368 138.454 977.278 138.454 974.699C138.454 972.121 137.628 970.03 136.61 970.03C135.591 970.03 134.766 972.121 134.766 974.699C134.766 977.278 135.591 979.368 136.61 979.368Z" fill="white"/>
<path d="M139.928 901.555C140.743 901.555 141.404 899.813 141.404 897.664C141.404 895.515 140.743 893.773 139.928 893.773C139.114 893.773 138.453 895.515 138.453 897.664C138.453 899.813 139.114 901.555 139.928 901.555Z" fill="white"/>
<path d="M1419.73 -0.193115C1417.06 21.6693 1412.04 40.4673 1406.67 58.6681C1401.03 77.7696 1395.75 97.1257 1390.88 117.549C1380.38 161.636 1371.05 207.446 1359.9 250.555C1339.84 328.106 1315.23 401.115 1282.99 448.032C1252.29 492.716 1217.25 507.529 1182.62 520.032C1163.48 526.944 1144.43 534.6 1125.4 543.157C1104.07 552.752 1082.75 562.601 1061.36 571.442C1041.21 579.774 1020.87 585.414 1000.8 594.871C982.851 603.33 965.083 615.735 948.792 636.824C944.534 642.336 940.401 648.426 936.396 655.035C936.146 655.446 936.38 656.464 936.634 656.053C952.796 629.393 971.002 612.622 989.776 601.813C1009.13 590.671 1028.91 585.472 1048.51 577.796C1089.96 561.573 1131.06 539.848 1172.58 524.81C1207.09 512.317 1242.32 501.028 1273.92 461.592C1306.63 420.765 1332.46 352.69 1353.07 278.174C1364.6 236.525 1374.33 192.33 1384.3 148.311C1389.26 126.409 1394.25 104.332 1399.97 83.6146C1404.97 65.5117 1410.7 48.623 1415.07 29.4627C1417.19 20.1616 1418.92 10.3807 1420.17 0.129883C1420.26 -0.594604 1419.81 -0.907837 1419.72 -0.18335L1419.73 -0.193115Z" fill="white"/>
<path d="M1410.89 -33.0331C1387.91 42.8701 1366.18 121.3 1341.42 193.688C1317.15 264.635 1289.42 328.355 1258.48 380.576C1243.54 405.805 1227.58 427.646 1210.51 442.298C1191.61 458.516 1171.65 464.216 1151.77 465.548C1130.71 466.959 1109.66 463.12 1088.69 458.653C1067.72 454.187 1047.75 452.082 1027.19 453.962C987.017 457.625 947.296 474.441 908.062 495.655C903.016 498.388 897.973 501.189 892.935 504.039C892.643 504.205 892.767 505.341 893.059 505.175C933.204 482.472 973.77 463.002 1014.91 456.656C1035.33 453.502 1055.82 453.57 1076.22 457.253C1097.35 461.073 1118.39 466.547 1139.6 466.998C1159.8 467.429 1180.47 464.51 1200.08 451.475C1217.26 440.055 1233.5 420.996 1248.65 397.804C1263.81 374.611 1278.11 347.071 1291.86 318.521C1306.54 288.052 1320.21 254.939 1332.99 219.465C1358.28 149.282 1380.14 71.9779 1402.68 -3.73929C1405.53 -13.3374 1408.4 -22.906 1411.29 -32.4355C1411.47 -33.033 1411.07 -33.6207 1410.88 -33.0331H1410.89Z" fill="white"/>
<path d="M1414.57 -34.3948C1410.11 12.5631 1396.98 51.1389 1384.94 87.3184C1371.36 128.114 1358.83 170.955 1345.7 212.641C1332.2 255.51 1318.61 298.644 1303.69 338.481C1289.95 375.14 1274.81 408.962 1257.62 435.136C1226.09 483.14 1188.77 502.937 1152.63 514.781C1117.33 526.352 1081.66 530.362 1046.51 545.083C1011.61 559.705 977.257 586.377 948.179 638.373C944.642 644.701 941.199 651.362 937.845 658.286C937.611 658.766 937.946 659.597 938.176 659.118C952.559 629.384 968.697 605.489 985.915 587.629C1002.29 570.65 1019.47 559.02 1036.85 550.619C1072.34 533.453 1108.54 529.189 1144.36 518.528C1179.66 508.033 1215.51 491.278 1247.48 450.619C1284.61 403.407 1311.57 321.14 1337.17 241.308C1344.36 218.9 1351.44 196.277 1358.46 173.527C1364.96 152.43 1371.25 130.863 1377.97 110.186C1389.79 73.8207 1403.14 38.6292 1410.94 -4.58264C1412.66 -14.0994 1414.05 -23.939 1415.02 -34.1014C1415.09 -34.835 1414.63 -35.1479 1414.56 -34.4143L1414.57 -34.3948Z" fill="white"/>
<path d="M1486.54 -83.5745C1484.99 -58.0103 1478.92 -35.8826 1472.92 -15.5467C1469.98 -5.58929 1466.93 4.15265 1464.04 14.208C1460.86 25.3207 1458.08 37.0503 1455.35 48.8876C1449.28 75.1176 1443.65 101.945 1437.57 128.145C1432.12 151.595 1426.26 174.447 1419.93 196.467C1407.8 238.666 1393.89 277.879 1377.77 310.718C1360.7 345.485 1341.13 371.764 1320.65 391.424C1280.82 429.668 1238.28 435.65 1196.52 451.463C1152.69 468.068 1109.49 495.777 1067.91 534.372C1026.34 572.959 986.286 622.54 949.338 684.145C944.872 691.596 940.452 699.223 936.079 707.017C935.838 707.447 936.068 708.466 936.317 708.035C972.934 642.758 1012.93 589.858 1054.66 548.374C1096.36 506.899 1139.85 476.655 1184.06 457.69C1225.8 439.772 1268.72 435.866 1309.26 402.782C1329.76 386.049 1349.81 362.766 1367.5 331.66C1384.36 302.004 1399.1 265.268 1411.92 224.929C1425.78 181.349 1437.02 133.736 1447.77 85.0652C1453.22 60.392 1458.52 35.1998 1465.16 12.3771C1471.22 -8.48749 1478.04 -28.3729 1482.73 -51.5187C1484.76 -61.5349 1486.32 -72.119 1487 -83.261C1487.04 -84.0052 1486.59 -84.3185 1486.54 -83.5745H1486.54Z" fill="#282D6E"/>
<path d="M1392.43 13.7856C1380.66 87.9491 1365.11 158.566 1345.9 222.245C1326.67 286.003 1303.54 343.264 1276.5 385.945C1262.29 408.354 1247.05 426.403 1231.08 439.346C1214.11 453.093 1196.49 460.667 1178.74 464.244C1160.46 467.928 1141.97 468.506 1123.64 467.222C1103.69 465.831 1083.77 461.696 1063.8 461.784C1045.74 461.873 1028.16 467.81 1010.8 480.509C994.107 492.718 978.063 509.669 961.971 526.003C957.896 530.137 953.818 534.243 949.724 538.25C949.447 538.525 949.568 539.661 949.849 539.387C966.424 523.151 982.742 505.142 999.587 490.689C1016.46 476.217 1033.87 465.939 1051.72 463.646C1071.95 461.049 1092.24 465.175 1112.44 467.379C1131.47 469.447 1150.58 469.545 1169.61 466.958C1187.01 464.587 1204.37 459.109 1221.24 447.841C1237.63 436.887 1253.44 420.68 1268.21 399.732C1295.83 360.548 1319.66 305.932 1339.6 244.301C1359.71 182.14 1376.13 112.435 1388.77 38.9771C1390.19 30.7367 1391.55 22.4473 1392.88 14.1188C1392.99 13.4133 1392.54 13.1096 1392.42 13.8052L1392.43 13.7856Z" fill="white"/>
<path d="M1377.69 2.9407C1376.46 18.8411 1372.64 32.382 1368.47 44.3759C1364.31 56.3697 1360.06 66.5033 1355.85 77.5279C1345.43 104.825 1334.44 130.702 1323.22 155.924C1304.4 198.279 1285.21 242.495 1262.22 270.242C1249.33 285.8 1235.48 295.189 1221.25 298.587C1220.95 298.655 1220.95 299.83 1221.25 299.762C1233.73 296.785 1245.94 289.315 1257.48 276.929C1268.71 264.867 1279.11 248.506 1288.89 230.188C1299.44 210.42 1309.32 188.508 1319.16 166.596C1330.78 140.709 1342.22 114.263 1353.09 86.3691C1358.22 73.1807 1363.53 60.1784 1368.4 46.3537C1372.77 33.9192 1376.86 19.8595 1378.14 3.25409C1378.19 2.51978 1377.74 2.19659 1377.68 2.9407H1377.69Z" fill="white"/>
<path d="M1381.39 12.1246C1361.02 80.6113 1336.91 141.838 1311.02 197.156C1298.07 224.825 1284.63 251.044 1270.78 275.793C1264.14 287.659 1257.46 299.347 1250.27 309.037C1243.07 318.727 1235.46 326.771 1227.69 333.267C1212.46 346.005 1196.58 352.99 1180.69 358.154C1162.99 363.895 1145.22 368.001 1127.42 371.067C1108.96 374.252 1090.48 376.584 1072.02 379.993C1053.96 383.334 1035.7 386.842 1017.85 394.758C1009.53 398.452 1001.06 403.263 993.262 411.63C987.047 418.303 981.328 427.542 976.041 438.065C964.626 460.796 955.21 489.121 945.916 517.084C943.721 523.688 941.526 530.301 939.3 536.846C939.105 537.415 939.436 538.257 939.631 537.679C949.019 510.039 957.943 481.254 968.462 456.21C973.823 443.444 979.601 431.647 985.979 422.222C992.993 411.856 1000.67 405.526 1008.55 400.774C1017.41 395.435 1026.46 392.329 1035.51 389.752C1044.71 387.136 1053.93 384.804 1063.17 382.893C1081.74 379.062 1100.36 376.642 1118.96 373.644C1137.55 370.646 1155.29 366.923 1173.4 361.573C1189.09 356.939 1204.8 351.148 1220.04 340.381C1235.41 329.505 1250.05 313.231 1263.23 290.471C1276.42 267.71 1289.97 242.216 1302.71 216.056C1328.96 162.168 1353.54 102.509 1374.68 35.8354C1377.1 28.2224 1379.46 20.5018 1381.78 12.7028C1381.96 12.0953 1381.56 11.5074 1381.38 12.1051L1381.39 12.1246Z" fill="white"/>
<path d="M1397.63 32.3929C1390.89 67.9815 1379.99 97.6207 1368.84 124.896C1357.55 152.523 1345.86 179.192 1334.37 206.282C1309.88 264.026 1283.54 319.143 1252.82 354.878C1236.76 373.566 1219.81 385.211 1202.29 391.356C1184.77 397.5 1166.44 398.907 1148.48 399.933C1129.7 401.008 1110.99 403.381 1092.28 407.25C1082.65 409.243 1073.03 411.47 1063.41 413.698C1054.84 415.69 1046.2 416.999 1037.71 420.653C1006.16 434.232 979.181 477.753 953.607 523.648C950.322 529.548 947.044 535.488 943.767 541.418C943.525 541.857 943.759 542.873 944.005 542.434C969.852 495.63 996.292 447.108 1027.71 427.169C1036.24 421.757 1044.87 419.158 1053.61 417.146C1063.2 414.938 1072.79 412.662 1082.38 410.552C1101.33 406.371 1120.31 402.786 1139.33 401.633C1174.52 399.503 1210.65 399.142 1243.83 365.888C1274.83 334.822 1301.62 282.851 1326.13 227.002C1338.01 199.922 1349.58 171.914 1361.32 144.453C1373.06 116.993 1384.01 90.2939 1392.52 57.5384C1394.57 49.6548 1396.42 41.4781 1398.03 32.979C1398.16 32.305 1397.75 31.7091 1397.63 32.3831V32.3929Z" fill="#282D6E"/>
<path d="M1377.75 -12.8695C1367.1 19.5077 1356.86 52.7443 1346.06 84.8188C1335.82 115.233 1324.84 143.635 1313.46 171.373C1302.88 197.196 1291.8 222.864 1278.87 241.186C1272.49 250.221 1265.83 256.501 1258.68 260.29C1250.13 264.812 1241.53 268.768 1232.9 272.274C1197.57 286.602 1161.82 293.185 1126.12 298.41C1090.44 303.636 1054.7 305.931 1019.02 310.873C986.127 315.434 953.023 324.625 921.262 347.362C917.448 350.097 913.66 353.037 909.896 356.182C909.612 356.416 909.733 357.549 910.021 357.314C941.976 330.641 975.661 319.312 1009.15 313.578C1026.42 310.619 1043.73 309.3 1061.02 307.484C1079.24 305.57 1097.45 303.548 1115.66 301.067C1151.13 296.242 1186.67 290.382 1221.85 277.695C1230.66 274.521 1239.44 270.907 1248.19 266.756C1255.78 263.152 1263.51 259.997 1270.69 252.565C1283.89 238.891 1295.25 215.558 1305.67 191.541C1316.88 165.708 1327.79 138.644 1337.93 110.164C1349.15 78.6167 1359.55 45.3409 1370.13 12.4461C1372.76 4.25171 1375.41 -3.90356 1378.08 -12.0198C1378.27 -12.5961 1377.94 -13.4262 1377.75 -12.85V-12.8695Z" fill="white"/>
<path d="M1280.41 248.579C1270.14 262.314 1260.74 280.736 1250.94 297.001C1240.83 313.785 1230.13 326.893 1219.07 337.236C1197.11 357.765 1174.18 366.795 1151.23 370.471C1139.02 372.422 1126.81 374.736 1114.57 375.432C1102.33 376.128 1091 374.854 1079.23 373.569C1056.13 371.059 1032.7 368.314 1009.88 381.363C987.863 393.961 966.071 413.677 945.882 442.618C943.348 446.246 940.845 450.05 938.364 453.981C938.138 454.344 938.341 455.353 938.568 455.001C958.703 423.02 980.606 401.501 1002.9 386.893C1014.37 379.373 1025.92 374.961 1037.66 373.481C1049.41 372.001 1061.18 372.863 1072.94 374.069C1084.61 375.265 1096.28 376.873 1107.96 376.814C1120.21 376.746 1132.44 374.736 1144.67 372.706C1167.47 368.942 1190.09 362.618 1212.16 344.51C1222.94 335.667 1233.62 324.481 1243.64 309.795C1253.8 294.932 1263.21 276.177 1273.19 260.422C1275.63 256.589 1278.09 252.952 1280.61 249.589C1280.84 249.275 1280.64 248.265 1280.4 248.569L1280.41 248.579Z" fill="#282D6E"/>
<path d="M1281.15 242.236C1239.31 287.881 1192.73 290.554 1148.08 304.204C1102.91 318.009 1057.88 336.306 1012.38 342.033C986.83 345.241 961.183 344.356 935.774 336.656C935.478 336.569 935.478 337.736 935.774 337.823C981.61 351.726 1027.86 343.112 1073.52 329.404C1096.37 322.54 1119.17 314.432 1142.01 307.257C1164.91 300.072 1187.93 295.61 1210.8 287.949C1234.89 279.87 1259.02 267.649 1281.39 243.247C1281.66 242.945 1281.42 241.944 1281.15 242.236H1281.15Z" fill="#FDCE82"/>
<path d="M1367.38 -12.7486C1360.99 21.3195 1350.71 50.129 1340.68 77.7289C1330.12 106.763 1319.62 136.089 1307.94 162.353C1285.4 213.035 1254.99 233.269 1225.65 243.035C1209.64 248.362 1193.5 250.889 1177.38 252.967C1161.53 255.006 1145.69 257.103 1129.85 259.581C1099.53 264.333 1069.14 268.44 1039.05 279.445C1009.08 290.41 979.515 308.81 951.68 339.113C948.03 343.083 944.418 347.259 940.834 351.6C940.565 351.932 940.799 352.937 941.072 352.615C969.312 318.391 999.547 296.781 1030.44 283.981C1060.88 271.367 1091.72 266.684 1122.47 261.903C1138.23 259.455 1153.98 257.025 1169.75 255.094C1186.01 253.103 1202.29 250.986 1218.47 246.411C1247.45 238.216 1277.42 221.933 1301.29 177.562C1313.66 154.567 1324.13 124.763 1334.48 96.4116C1344.43 69.163 1354.75 42.1193 1362.7 10.8414C1364.58 3.43655 1366.3 -4.21213 1367.79 -12.1535C1367.92 -12.8267 1367.51 -13.4218 1367.38 -12.7486Z" fill="white"/>
<path d="M1263.36 166.187C1260.02 177.449 1254.8 184.298 1249.77 189.618C1244.74 194.938 1239.18 199.064 1233.79 202.963C1227.4 207.582 1221.05 212.25 1214.54 215.685C1206.83 219.762 1199.02 222.703 1191.18 224.726C1175.39 228.803 1159.39 229.79 1143.53 231.063C1135.47 231.704 1127.39 231.448 1119.34 232.336C1111.72 233.175 1104.13 235.169 1096.58 237.774C1079.03 243.845 1061.68 253.231 1044.16 259.706C1043.86 259.814 1043.98 260.959 1044.28 260.851C1060.08 255.008 1075.73 246.806 1091.52 240.805C1099.76 237.676 1108.03 235.149 1116.34 233.915C1124.66 232.681 1132.66 233.037 1140.81 232.455C1156.97 231.3 1173.27 230.234 1189.37 226.365C1204.02 222.841 1218.22 215.527 1232.35 205.233C1238.28 200.91 1244.24 196.735 1249.95 190.704C1255.08 185.266 1260.35 178.278 1263.76 166.779C1263.94 166.167 1263.53 165.575 1263.35 166.177L1263.36 166.187Z" fill="#282D6E"/>
<path d="M1103 313.771C1101.78 313.771 1100.79 316.209 1100.79 319.218C1100.79 322.226 1101.78 324.665 1103 324.665C1104.22 324.665 1105.21 322.226 1105.21 319.218C1105.21 316.209 1104.22 313.771 1103 313.771Z" fill="white"/>
<path d="M1193.73 245.296C1192.51 245.296 1191.52 247.734 1191.52 250.743C1191.52 253.751 1192.51 256.189 1193.73 256.189C1194.95 256.189 1195.94 253.751 1195.94 250.743C1195.94 247.734 1194.95 245.296 1193.73 245.296Z" fill="white"/>
<path d="M1133.24 226.62C1132.02 226.62 1131.03 228.71 1131.03 231.289C1131.03 233.867 1132.02 235.958 1133.24 235.958C1134.46 235.958 1135.45 233.867 1135.45 231.289C1135.45 228.71 1134.46 226.62 1133.24 226.62Z" fill="white"/>
<path d="M1108.16 393.14C1106.94 393.14 1105.95 395.579 1105.95 398.587C1105.95 401.595 1106.94 404.034 1108.16 404.034C1109.38 404.034 1110.38 401.595 1110.38 398.587C1110.38 395.579 1109.38 393.14 1108.16 393.14Z" fill="white"/>
<path d="M1156.11 442.941C1154.89 442.941 1153.9 445.379 1153.9 448.388C1153.9 451.396 1154.89 453.834 1156.11 453.834C1157.33 453.834 1158.32 451.396 1158.32 448.388C1158.32 445.379 1157.33 442.941 1156.11 442.941Z" fill="white"/>
<path d="M1221.39 295.096C1220.37 295.096 1219.55 297.186 1219.55 299.764C1219.55 302.343 1220.37 304.433 1221.39 304.433C1222.41 304.433 1223.23 302.343 1223.23 299.764C1223.23 297.186 1222.41 295.096 1221.39 295.096Z" fill="white"/>
<path d="M1218.07 372.909C1217.26 372.909 1216.6 374.651 1216.6 376.8C1216.6 378.949 1217.26 380.69 1218.07 380.69C1218.89 380.69 1219.55 378.949 1219.55 376.8C1219.55 374.651 1218.89 372.909 1218.07 372.909Z" fill="white"/>
<path d="M61.416 106.72C58.856 106.72 56.544 106.272 54.48 105.376C52.432 104.464 50.744 103.168 49.416 101.488C48.104 99.792 47.272 97.776 46.92 95.44L53.736 94.432C54.216 96.416 55.208 97.944 56.712 99.016C58.216 100.088 59.928 100.624 61.848 100.624C62.92 100.624 63.96 100.456 64.968 100.12C65.976 99.784 66.8 99.288 67.44 98.632C68.096 97.976 68.424 97.168 68.424 96.208C68.424 95.856 68.368 95.52 68.256 95.2C68.16 94.864 67.992 94.552 67.752 94.264C67.512 93.976 67.168 93.704 66.72 93.448C66.288 93.192 65.736 92.96 65.064 92.752L56.088 90.112C55.416 89.92 54.632 89.648 53.736 89.296C52.856 88.944 52 88.44 51.168 87.784C50.336 87.128 49.64 86.264 49.08 85.192C48.536 84.104 48.264 82.736 48.264 81.088C48.264 78.768 48.848 76.84 50.016 75.304C51.184 73.768 52.744 72.624 54.696 71.872C56.648 71.12 58.808 70.752 61.176 70.768C63.56 70.8 65.688 71.208 67.56 71.992C69.432 72.776 71 73.92 72.264 75.424C73.528 76.912 74.44 78.736 75 80.896L67.944 82.096C67.688 80.976 67.216 80.032 66.528 79.264C65.84 78.496 65.016 77.912 64.056 77.512C63.112 77.112 62.12 76.896 61.08 76.864C60.056 76.832 59.088 76.976 58.176 77.296C57.28 77.6 56.544 78.048 55.968 78.64C55.408 79.232 55.128 79.936 55.128 80.752C55.128 81.504 55.36 82.12 55.824 82.6C56.288 83.064 56.872 83.44 57.576 83.728C58.28 84.016 59 84.256 59.736 84.448L65.736 86.08C66.632 86.32 67.624 86.64 68.712 87.04C69.8 87.424 70.84 87.968 71.832 88.672C72.84 89.36 73.664 90.272 74.304 91.408C74.96 92.544 75.288 93.984 75.288 95.728C75.288 97.584 74.896 99.208 74.112 100.6C73.344 101.976 72.304 103.12 70.992 104.032C69.68 104.928 68.192 105.6 66.528 106.048C64.88 106.496 63.176 106.72 61.416 106.72ZM108.572 106V71.44H131.132V77.536H115.1V84.928H128.252V91.024H115.1V99.904H131.132V106H108.572ZM136.404 106V71.44H158.964V77.536H142.932V84.928H156.084V91.024H142.932V99.904H158.964V106H136.404Z" fill="white"/>
<path d="M79.1231 105.952V100.288L93.6191 87.424C94.7071 86.464 95.4751 85.56 95.9231 84.712C96.3711 83.864 96.5951 83.072 96.5951 82.336C96.5951 81.28 96.3791 80.344 95.9471 79.528C95.5151 78.696 94.9071 78.048 94.1231 77.584C93.3391 77.104 92.4191 76.864 91.3631 76.864C90.2591 76.864 89.2831 77.12 88.4351 77.632C87.6031 78.128 86.9551 78.792 86.4911 79.624C86.0271 80.44 85.8111 81.328 85.8431 82.288H79.1231C79.1231 79.92 79.6431 77.872 80.6831 76.144C81.7231 74.416 83.1711 73.08 85.0271 72.136C86.8831 71.192 89.0431 70.72 91.5071 70.72C93.7631 70.72 95.7791 71.216 97.5551 72.208C99.3471 73.184 100.755 74.552 101.779 76.312C102.803 78.072 103.315 80.112 103.315 82.432C103.315 84.144 103.075 85.568 102.595 86.704C102.115 87.824 101.403 88.864 100.459 89.824C99.5151 90.768 98.3551 91.84 96.9791 93.04L87.6191 101.248L87.0911 99.808H103.315V105.952H79.1231Z" fill="#F9EF99"/>
<path d="M61.416 106.72C58.856 106.72 56.544 106.272 54.48 105.376C52.432 104.464 50.744 103.168 49.416 101.488C48.104 99.792 47.272 97.776 46.92 95.44L53.736 94.432C54.216 96.416 55.208 97.944 56.712 99.016C58.216 100.088 59.928 100.624 61.848 100.624C62.92 100.624 63.96 100.456 64.968 100.12C65.976 99.784 66.8 99.288 67.44 98.632C68.096 97.976 68.424 97.168 68.424 96.208C68.424 95.856 68.368 95.52 68.256 95.2C68.16 94.864 67.992 94.552 67.752 94.264C67.512 93.976 67.168 93.704 66.72 93.448C66.288 93.192 65.736 92.96 65.064 92.752L56.088 90.112C55.416 89.92 54.632 89.648 53.736 89.296C52.856 88.944 52 88.44 51.168 87.784C50.336 87.128 49.64 86.264 49.08 85.192C48.536 84.104 48.264 82.736 48.264 81.088C48.264 78.768 48.848 76.84 50.016 75.304C51.184 73.768 52.744 72.624 54.696 71.872C56.648 71.12 58.808 70.752 61.176 70.768C63.56 70.8 65.688 71.208 67.56 71.992C69.432 72.776 71 73.92 72.264 75.424C73.528 76.912 74.44 78.736 75 80.896L67.944 82.096C67.688 80.976 67.216 80.032 66.528 79.264C65.84 78.496 65.016 77.912 64.056 77.512C63.112 77.112 62.12 76.896 61.08 76.864C60.056 76.832 59.088 76.976 58.176 77.296C57.28 77.6 56.544 78.048 55.968 78.64C55.408 79.232 55.128 79.936 55.128 80.752C55.128 81.504 55.36 82.12 55.824 82.6C56.288 83.064 56.872 83.44 57.576 83.728C58.28 84.016 59 84.256 59.736 84.448L65.736 86.08C66.632 86.32 67.624 86.64 68.712 87.04C69.8 87.424 70.84 87.968 71.832 88.672C72.84 89.36 73.664 90.272 74.304 91.408C74.96 92.544 75.288 93.984 75.288 95.728C75.288 97.584 74.896 99.208 74.112 100.6C73.344 101.976 72.304 103.12 70.992 104.032C69.68 104.928 68.192 105.6 66.528 106.048C64.88 106.496 63.176 106.72 61.416 106.72ZM108.572 106V71.44H131.132V77.536H115.1V84.928H128.252V91.024H115.1V99.904H131.132V106H108.572ZM136.404 106V71.44H158.964V77.536H142.932V84.928H156.084V91.024H142.932V99.904H158.964V106H136.404Z" fill="white"/>
<path d="M79.1231 105.952V100.288L93.6191 87.424C94.7071 86.464 95.4751 85.56 95.9231 84.712C96.3711 83.864 96.5951 83.072 96.5951 82.336C96.5951 81.28 96.3791 80.344 95.9471 79.528C95.5151 78.696 94.9071 78.048 94.1231 77.584C93.3391 77.104 92.4191 76.864 91.3631 76.864C90.2591 76.864 89.2831 77.12 88.4351 77.632C87.6031 78.128 86.9551 78.792 86.4911 79.624C86.0271 80.44 85.8111 81.328 85.8431 82.288H79.1231C79.1231 79.92 79.6431 77.872 80.6831 76.144C81.7231 74.416 83.1711 73.08 85.0271 72.136C86.8831 71.192 89.0431 70.72 91.5071 70.72C93.7631 70.72 95.7791 71.216 97.5551 72.208C99.3471 73.184 100.755 74.552 101.779 76.312C102.803 78.072 103.315 80.112 103.315 82.432C103.315 84.144 103.075 85.568 102.595 86.704C102.115 87.824 101.403 88.864 100.459 89.824C99.5151 90.768 98.3551 91.84 96.9791 93.04L87.6191 101.248L87.0911 99.808H103.315V105.952H79.1231Z" fill="#F9EF99"/>
</g>
<defs>
<filter id="filter0_d_239_628" x="-68" y="-50" width="1568" height="1341" filterUnits="userSpaceOnUse" color-interpolation-filters="sRGB">
<feFlood flood-opacity="0" result="BackgroundImageFix"/>
<feColorMatrix in="SourceAlpha" type="matrix" values="0 0 0 0 0 0 0 0 0 0 0 0 0 0 0 0 0 0 127 0" result="hardAlpha"/>
<feOffset dy="10"/>
<feGaussianBlur stdDeviation="30"/>
<feComposite in2="hardAlpha" operator="out"/>
<feColorMatrix type="matrix" values="0 0 0 0 0.885625 0 0 0 0 0.92625 0 0 0 0 0.975 0 0 0 0.5 0"/>
<feBlend mode="normal" in2="BackgroundImageFix" result="effect1_dropShadow_239_628"/>
<feBlend mode="normal" in="SourceGraphic" in2="effect1_dropShadow_239_628" result="shape"/>
</filter>
<clipPath id="clip0_239_628">
<rect width="1440" height="1198" fill="white"/>
</clipPath>
</defs>
</svg>
