<svg width="424" height="885" viewBox="0 0 424 885" fill="none" xmlns="http://www.w3.org/2000/svg">
<path d="M31.6547 805.577C32.0153 776.993 37.0696 751.503 40.7568 726.71C44.8907 698.915 49.0703 671.212 53.3011 643.592C60.9364 593.748 68.6148 543.887 76.7427 494.961C83.4091 454.848 90.7807 415.313 100.58 383.149C105.513 366.966 111.033 352.894 117.064 341.824C123.919 329.249 131.401 321.116 138.835 313.534C154.845 297.204 171.276 286.152 187.725 276.422C195.921 271.575 204.132 267.087 212.338 262.488C220.544 257.889 229.078 252.593 237.483 248.38C255.324 239.439 273.291 233.619 291.105 224.064C307.127 215.463 322.798 202.988 337.91 182.665C351.625 164.224 364.678 140.533 377.155 113.83C389.996 86.3568 402.247 55.8175 414.325 24.6264C417.353 16.8057 420.37 8.94829 423.385 1.06333C423.546 0.641084 423.385 -0.32273 423.22 0.108694C410.937 32.2085 398.597 64.1247 385.738 93.5074C373.339 121.825 360.431 147.702 346.819 168.63C332.353 190.872 317.214 206.843 301.623 216.794C283.647 228.268 265.438 234.501 247.32 242.624C230.407 250.215 213.6 260.551 196.774 270.079C180.176 279.479 163.576 289.585 147.299 304.263C132.922 317.224 118.51 332.158 106.625 363.763C96.0853 391.787 88.0194 428.797 81.0999 467.424C72.9533 512.898 65.7781 560.575 58.4739 607.655C54.1973 635.211 49.9719 662.85 45.7976 690.58C43.6903 704.569 41.5965 718.577 39.5161 732.603C37.6779 744.976 35.6459 757.074 34.0096 769.778C32.5428 781.17 31.4878 793.057 31.3317 805.55C31.3236 806.257 31.6466 806.257 31.6547 805.55V805.577Z" fill="white"/>
<path d="M39.7918 805.703C41.6357 785.189 45.1028 767.55 48.8122 750.472C52.7047 732.548 56.3495 714.386 59.709 695.222C66.9582 653.854 73.3999 610.869 81.0986 570.419C94.951 497.65 111.939 429.144 134.193 385.121C155.386 343.192 179.581 329.292 203.49 317.561C216.699 311.075 229.849 303.891 242.988 295.861C257.718 286.858 272.435 277.616 287.2 269.32C301.109 261.502 315.155 256.211 329.01 247.336C341.401 239.399 353.667 227.759 364.914 207.971C367.854 202.799 370.707 197.084 373.472 190.883C373.644 190.497 373.482 189.542 373.307 189.928C362.15 214.944 349.581 230.681 336.62 240.823C323.26 251.278 309.601 256.156 296.075 263.358C267.455 278.581 239.085 298.966 210.416 313.077C186.596 324.8 162.27 335.392 140.457 372.397C117.875 410.706 100.044 474.582 85.8121 544.503C77.8576 583.584 71.1387 625.053 64.2555 666.357C60.8315 686.908 57.3886 707.625 53.4369 727.064C49.9859 744.05 46.0315 759.898 43.0139 777.876C41.5496 786.604 40.3517 795.782 39.4876 805.4C39.4257 806.08 39.7379 806.374 39.7998 805.694L39.7918 805.703Z" fill="white"/>
<path d="M45.8968 836.518C61.7595 765.296 76.7647 691.702 93.8586 623.779C110.614 557.207 129.759 497.417 151.116 448.416C161.433 424.743 172.446 404.249 184.234 390.501C197.282 375.282 211.059 369.934 224.785 368.684C239.325 367.361 253.854 370.963 268.332 375.154C282.811 379.344 296.596 381.32 310.794 379.556C338.525 376.119 365.947 360.339 393.033 340.434C396.516 337.87 399.998 335.242 403.476 332.567C403.678 332.411 403.592 331.345 403.39 331.501C375.675 352.804 347.67 371.073 319.27 377.028C305.173 379.988 291.028 379.923 276.94 376.468C262.354 372.884 247.827 367.747 233.19 367.324C219.242 366.919 204.973 369.658 191.435 381.89C179.57 392.605 168.363 410.489 157.901 432.251C147.439 454.013 137.568 479.855 128.073 506.644C117.939 535.234 108.498 566.305 99.6758 599.591C82.2163 665.447 67.1251 737.983 51.5661 809.031C49.5957 818.037 47.6145 827.015 45.6226 835.957C45.4963 836.518 45.7758 837.069 45.9022 836.518H45.8968Z" fill="white"/>
<path d="M43.359 837.796C46.4391 793.734 55.5015 757.537 63.8128 723.589C73.1849 685.309 81.8408 645.11 90.9032 605.995C100.224 565.769 109.604 525.296 119.908 487.915C129.388 453.517 139.845 421.781 151.71 397.221C173.475 352.177 199.241 333.601 224.191 322.487C248.565 311.63 273.189 307.867 297.452 294.055C321.546 280.334 345.263 255.307 365.337 206.518C367.779 200.58 370.157 194.33 372.472 187.832C372.633 187.383 372.402 186.602 372.243 187.052C362.314 214.952 351.173 237.373 339.286 254.132C327.981 270.064 316.118 280.977 304.121 288.86C279.621 304.967 254.633 308.968 229.899 318.972C205.53 328.82 180.779 344.541 158.707 382.693C133.076 426.993 114.467 504.187 96.7887 579.095C91.8267 600.121 86.9374 621.349 82.0939 642.697C77.603 662.493 73.263 682.73 68.624 702.131C60.4662 736.254 51.2503 769.275 45.8602 809.822C44.6729 818.752 43.7171 827.985 43.0494 837.521C43.0009 838.209 43.3133 838.502 43.3617 837.814L43.359 837.796Z" fill="white"/>
<path d="M0.317149 883.849C1.38803 859.861 5.57471 839.098 9.71834 820.016C11.7471 810.673 13.8566 801.532 15.8477 792.097C18.0487 781.669 19.9671 770.663 21.8533 759.556C26.0373 734.943 29.928 709.771 34.1281 685.186C37.887 663.183 41.9337 641.74 46.3034 621.078C54.674 581.481 64.2824 544.687 75.411 513.873C87.1908 481.249 100.701 456.591 114.84 438.143C142.339 402.258 171.71 396.645 200.538 381.808C230.797 366.226 245.303 368.451 274.01 332.235C302.708 296.029 315.425 279.403 340.932 221.597C344.016 214.606 362.382 179.224 365.401 171.911C365.567 171.507 380.345 140.654 380.172 141.058C334.339 236.857 327.279 251.947 298.476 290.873C269.683 329.79 239.66 358.169 209.14 375.964C180.32 392.777 150.691 396.443 122.705 427.486C108.552 443.187 94.7139 465.034 82.5009 494.222C70.8557 522.05 60.685 556.52 51.83 594.371C42.2647 635.263 34.5021 679.94 27.0839 725.609C23.3224 748.761 19.6631 772.4 15.0808 793.815C10.8915 813.393 6.1855 832.052 2.94593 853.77C1.54409 863.169 0.467825 873.1 0.00233902 883.555C-0.029949 884.253 0.28217 884.547 0.314458 883.849H0.317149Z" fill="#282D6E"/>
<path d="M58.6413 792.587C66.7676 722.997 77.5048 656.735 90.764 596.983C104.039 537.157 120.006 483.427 138.679 443.378C148.484 422.351 159.008 405.416 170.033 393.27C181.749 380.371 193.914 373.264 206.168 369.908C218.789 366.451 231.55 365.909 244.205 367.113C257.979 368.419 271.728 372.299 285.513 372.216C297.986 372.133 310.124 366.562 322.109 354.646C333.63 343.19 344.707 327.285 355.816 311.958C358.629 308.078 361.444 304.226 364.271 300.466C364.462 300.208 364.378 299.142 364.184 299.399C352.741 314.634 341.476 331.532 329.847 345.093C318.202 358.673 306.177 368.318 293.855 370.469C279.893 372.906 265.879 369.035 251.935 366.966C238.797 365.026 225.606 364.934 212.47 367.361C200.453 369.586 188.469 374.726 176.823 385.299C165.51 395.578 154.595 410.785 144.402 430.442C125.333 467.209 108.878 518.457 95.1128 576.287C81.2285 634.614 69.8958 700.021 61.1686 768.949C60.1905 776.681 59.2475 784.459 58.3341 792.274C58.256 792.936 58.5685 793.221 58.6466 792.568L58.6413 792.587Z" fill="white"/>
<path d="M68.8198 802.763C69.6678 787.843 72.306 775.137 75.1811 763.883C78.0562 752.629 80.9878 743.12 83.8952 732.776C91.0883 707.162 98.6772 682.881 106.419 659.215C119.417 619.471 132.664 577.982 148.536 551.946C157.436 537.348 166.996 528.537 176.822 525.349C177.026 525.285 177.029 524.183 176.822 524.247C168.204 527.04 159.77 534.05 151.807 545.671C144.051 556.99 136.872 572.341 130.123 589.53C122.841 608.079 116.019 628.64 109.227 649.201C101.202 673.491 93.3039 698.306 85.8011 724.48C82.2557 736.855 78.5919 749.055 75.2322 762.027C72.2117 773.695 69.3932 786.888 68.5102 802.469C68.4698 803.158 68.7821 803.461 68.8225 802.763H68.8198Z" fill="white"/>
<path d="M66.2658 794.145C80.3291 729.882 96.9735 672.432 114.845 620.525C123.784 594.562 133.064 569.96 142.627 546.737C147.211 535.604 151.822 524.636 156.788 515.543C161.753 506.451 167.007 498.903 172.374 492.808C182.89 480.856 193.853 474.301 204.821 469.456C217.038 464.068 229.306 460.216 241.593 457.339C254.34 454.351 267.1 452.163 279.845 448.963C292.312 445.828 304.919 442.537 317.241 435.109C322.985 431.643 328.831 427.129 334.214 419.277C338.504 413.016 342.453 404.347 346.102 394.473C353.983 373.144 360.483 346.565 366.9 320.327C368.415 314.13 369.93 307.925 371.467 301.783C371.602 301.25 371.373 300.459 371.238 301.002C364.757 326.937 358.596 353.948 351.335 377.446C347.634 389.426 343.645 400.495 339.242 409.339C334.399 419.066 329.1 425.005 323.658 429.464C317.54 434.474 311.295 437.389 305.048 439.807C298.693 442.261 292.328 444.449 285.952 446.242C273.129 449.837 260.277 452.108 247.439 454.921C234.6 457.734 222.353 461.228 209.854 466.247C199.02 470.596 188.176 476.029 177.655 486.133C167.04 496.338 156.938 511.608 147.835 532.965C138.733 554.322 129.377 578.243 120.578 602.79C102.462 653.355 85.4914 709.335 70.8952 771.897C69.2265 779.04 67.5927 786.285 65.9912 793.603C65.8674 794.173 66.1473 794.725 66.2712 794.164L66.2658 794.145Z" fill="white"/>
<path d="M30.6795 795.299C35.3311 761.905 42.8565 734.093 50.5516 708.5C58.3436 682.577 66.4185 657.553 74.3506 632.134C91.2546 577.95 109.438 526.232 130.646 492.701C141.737 475.165 153.438 464.239 165.534 458.473C177.63 452.707 190.281 451.387 202.684 450.425C215.645 449.416 228.56 447.189 241.48 443.559C248.127 441.689 254.767 439.599 261.409 437.509C267.326 435.639 273.289 434.411 279.153 430.983C300.937 418.241 319.56 377.404 337.215 334.339C339.483 328.803 341.745 323.23 344.008 317.665C344.175 317.253 344.013 316.3 343.844 316.712C326 360.629 307.746 406.159 286.053 424.868C280.166 429.947 274.213 432.385 268.177 434.273C261.557 436.345 254.936 438.481 248.313 440.461C235.231 444.384 222.128 447.748 208.997 448.83C184.705 450.828 159.764 451.167 136.854 482.37C115.452 511.52 96.9565 560.286 80.0391 612.691C71.835 638.101 63.8517 664.382 55.7445 690.149C47.6373 715.916 40.0796 740.968 34.2025 771.704C32.7885 779.101 31.5118 786.774 30.3994 794.749C30.3105 795.381 30.5906 795.94 30.6795 795.308V795.299Z" fill="#282D6E"/>
<path d="M68.7748 817.598C76.1293 787.217 83.1986 756.03 90.6553 725.934C97.7246 697.396 105.305 670.745 113.157 644.718C120.466 620.487 128.111 596.402 137.039 579.21C141.443 570.732 146.04 564.839 150.981 561.284C156.883 557.04 162.82 553.329 168.773 550.039C193.163 536.594 217.847 530.417 242.495 525.514C267.128 520.611 291.798 518.458 316.433 513.82C339.139 509.541 361.993 500.917 383.92 479.582C386.553 477.016 389.168 474.257 391.766 471.306C391.963 471.086 391.879 470.023 391.68 470.243C369.619 495.271 346.364 505.902 323.244 511.282C311.322 514.059 299.373 515.296 287.434 517.001C274.859 518.797 262.283 520.694 249.715 523.022C225.228 527.549 200.693 533.048 176.405 544.952C170.322 547.931 164.259 551.322 158.22 555.217C152.977 558.598 147.643 561.559 142.688 568.533C133.572 581.363 125.73 603.257 118.535 625.793C110.795 650.033 103.266 675.428 96.2694 702.152C88.5221 731.753 81.3398 762.977 74.0365 793.843C72.218 801.532 70.3915 809.185 68.5462 816.8C68.4144 817.341 68.643 818.12 68.7748 817.579V817.598Z" fill="white"/>
<path d="M118.89 594.598C125.974 581.71 132.466 564.424 139.23 549.162C146.208 533.413 153.6 521.114 161.234 511.408C176.392 492.145 192.226 483.673 208.065 480.223C216.5 478.392 224.93 476.221 233.379 475.568C241.827 474.915 249.646 476.111 257.774 477.316C273.719 479.671 289.898 482.247 305.65 470.002C320.851 458.181 335.896 439.682 349.833 412.525C351.583 409.121 353.311 405.552 355.023 401.863C355.18 401.523 355.039 400.575 354.883 400.906C340.982 430.915 325.861 451.107 310.471 464.814C302.554 471.87 294.577 476.01 286.471 477.399C278.359 478.788 270.232 477.978 262.12 476.847C254.062 475.724 246.005 474.216 237.943 474.271C229.485 474.335 221.038 476.221 212.596 478.125C196.859 481.658 181.241 487.591 166.003 504.583C158.562 512.88 151.191 523.377 144.268 537.157C137.26 551.104 130.761 568.702 123.868 583.485C122.19 587.082 120.487 590.495 118.752 593.65C118.59 593.945 118.731 594.892 118.892 594.607L118.89 594.598Z" fill="#282D6E"/>
<path d="M135.465 578.225C164.35 535.395 196.508 532.886 227.333 520.078C258.518 507.125 289.601 489.956 321.018 484.583C338.654 481.572 356.36 482.402 373.901 489.628C374.106 489.71 374.106 488.615 373.901 488.533C342.258 475.488 310.331 483.57 278.809 496.433C263.029 502.873 247.292 510.482 231.523 517.214C215.716 523.956 199.821 528.143 184.03 535.331C167.399 542.912 150.741 554.379 135.303 577.277C135.112 577.559 135.276 578.499 135.467 578.225H135.465Z" fill="#FDCE82"/>
<path d="M75.9329 817.485C80.3463 785.517 87.4439 758.485 94.3693 732.587C101.655 705.343 108.909 677.825 116.972 653.182C132.53 605.625 153.525 586.638 173.782 577.475C184.836 572.477 195.975 570.106 207.107 568.156C218.048 566.243 228.984 564.274 239.919 561.949C260.849 557.491 281.832 553.637 302.6 543.311C323.293 533.021 343.704 515.756 362.92 487.323C365.44 483.597 367.933 479.679 370.408 475.605C370.593 475.294 370.432 474.351 370.244 474.653C350.747 506.766 329.874 527.043 308.544 539.054C287.534 550.891 266.244 555.285 245.013 559.77C234.134 562.068 223.258 564.348 212.371 566.16C201.145 568.028 189.911 570.014 178.739 574.308C158.734 581.997 138.041 597.276 121.563 638.91C113.024 660.487 105.797 688.454 98.6483 715.056C91.7766 740.624 84.6549 766 79.1656 795.349C77.8666 802.298 76.6832 809.474 75.6532 816.926C75.5644 817.558 75.8441 818.116 75.9329 817.485Z" fill="white"/>
<path d="M147.746 649.584C150.051 639.017 153.656 632.59 157.129 627.598C160.602 622.606 164.439 618.734 168.163 615.076C172.571 610.742 176.955 606.361 181.448 603.138C186.773 599.313 192.166 596.553 197.577 594.655C208.481 590.83 219.523 589.904 230.475 588.709C236.04 588.107 241.614 588.348 247.176 587.514C252.434 586.727 257.673 584.856 262.888 582.411C275.005 576.716 286.977 567.908 299.078 561.833C299.283 561.731 299.197 560.656 298.992 560.758C288.083 566.241 277.278 573.937 266.377 579.568C260.693 582.504 254.982 584.875 249.242 586.033C243.501 587.19 237.979 586.857 232.352 587.403C221.194 588.487 209.943 589.487 198.828 593.118C188.714 596.424 178.908 603.287 169.158 612.946C165.065 617.003 160.945 620.92 157.008 626.579C153.462 631.682 149.822 638.239 147.471 649.029C147.347 649.603 147.627 650.158 147.751 649.593L147.746 649.584Z" fill="#282D6E"/>
<path d="M165.491 822.038C171.46 808.091 177.008 792.068 183.232 779.384C189.728 766.141 196.923 756.612 204.102 748.592C218.137 732.898 232.818 722.857 247.333 713.757C262.587 704.191 278.175 701.987 293.658 702.042C309.003 702.097 324.497 702.472 339.706 710.062C356.69 718.54 373.257 734.883 389.139 756.914C389.33 757.179 389.416 756.118 389.225 755.853C374.869 735.944 359.957 720.644 344.67 711.654C329.629 702.801 314.42 701.63 299.19 701.063C283.629 700.478 267.985 701.74 252.574 709.669C245.247 713.437 237.985 718.888 230.738 724.1C223.312 729.441 215.909 735.267 208.633 742.629C200.803 750.549 192.997 760.133 185.775 773.229C178.553 786.325 172.154 805.164 165.335 821.096C165.166 821.489 165.327 822.449 165.5 822.047L165.491 822.038Z" fill="white"/>
<path d="M108.038 826.153C109.664 812.901 113.504 804.275 116.771 796.098C120.442 786.903 124.031 777.423 127.812 768.751C135.793 750.47 144.251 734.695 153.148 722.26C170.931 697.391 189.885 685.075 208.963 679.276C227.539 673.632 246.219 673.981 264.736 665.712C283.252 657.444 300.054 642.219 315.789 611.908C323.501 597.05 331.148 581.449 338.049 562.398C341.432 553.056 344.764 542.888 347.48 531.224C350.162 519.725 352.196 506.73 354.536 494.443C355.802 487.798 357.167 481.411 358.734 475.547C358.873 475.024 358.645 474.244 358.505 474.767C355.595 485.669 353.429 498.389 351.17 510.878C348.732 524.341 345.989 536.381 342.625 547.293C335.972 568.877 328.201 586.047 320.306 601.813C312.412 617.579 304.042 631.831 295.182 641.852C286.474 651.699 277.475 658.297 268.406 662.876C249.747 672.301 230.906 672.2 212.142 677.275C193.212 682.396 174.344 693.344 156.542 716.516C147.645 728.097 139.138 742.725 131.096 760.143C127.076 768.843 123.177 778.176 119.386 788.004C116.349 795.878 113.033 803.091 110.387 812.534C109.282 816.471 108.353 820.83 107.732 825.868C107.651 826.52 107.963 826.804 108.044 826.162L108.038 826.153Z" fill="#282D6E"/>
<path d="M172.138 270.154C173.966 270.154 175.448 265.251 175.448 259.202C175.448 253.153 173.966 248.25 172.138 248.25C170.31 248.25 168.828 253.153 168.828 259.202C168.828 265.251 170.31 270.154 172.138 270.154Z" fill="white"/>
<path d="M186.652 661.511C188.339 661.511 189.707 656.608 189.707 650.559C189.707 644.51 188.339 639.607 186.652 639.607C184.964 639.607 183.596 644.51 183.596 650.559C183.596 656.608 184.964 661.511 186.652 661.511Z" fill="white"/>
<path d="M258.456 511.102C259.299 511.102 259.983 508.814 259.983 505.991C259.983 503.168 259.299 500.88 258.456 500.88C257.612 500.88 256.928 503.168 256.928 505.991C256.928 508.814 257.612 511.102 258.456 511.102Z" fill="white"/>
<path d="M195.818 575.354C196.662 575.354 197.346 573.066 197.346 570.243C197.346 567.42 196.662 565.132 195.818 565.132C194.974 565.132 194.29 567.42 194.29 570.243C194.29 573.066 194.974 575.354 195.818 575.354Z" fill="white"/>
<path d="M207.531 683.416C208.375 683.416 209.059 681.127 209.059 678.305C209.059 675.482 208.375 673.194 207.531 673.194C206.687 673.194 206.003 675.482 206.003 678.305C206.003 681.127 206.687 683.416 207.531 683.416Z" fill="white"/>
<path d="M214.151 648.369C214.995 648.369 215.679 646.08 215.679 643.258C215.679 640.435 214.995 638.147 214.151 638.147C213.307 638.147 212.623 640.435 212.623 643.258C212.623 646.08 213.307 648.369 214.151 648.369Z" fill="white"/>
<path d="M237.576 592.878C238.42 592.878 239.104 590.916 239.104 588.497C239.104 586.077 238.42 584.116 237.576 584.116C236.733 584.116 236.049 586.077 236.049 588.497C236.049 590.916 236.733 592.878 237.576 592.878Z" fill="white"/>
<path d="M254.891 436.627C255.735 436.627 256.419 434.339 256.419 431.516C256.419 428.693 255.735 426.405 254.891 426.405C254.047 426.405 253.363 428.693 253.363 431.516C253.363 434.339 254.047 436.627 254.891 436.627Z" fill="white"/>
<path d="M221.79 389.898C222.634 389.898 223.318 387.609 223.318 384.787C223.318 381.964 222.634 379.676 221.79 379.676C220.946 379.676 220.262 381.964 220.262 384.787C220.262 387.609 220.946 389.898 221.79 389.898Z" fill="white"/>
<path d="M176.722 528.625C177.425 528.625 177.995 526.664 177.995 524.244C177.995 521.825 177.425 519.863 176.722 519.863C176.018 519.863 175.448 521.825 175.448 524.244C175.448 526.664 176.018 528.625 176.722 528.625Z" fill="white"/>
<path d="M179.013 455.611C179.575 455.611 180.031 453.976 180.031 451.96C180.031 449.944 179.575 448.309 179.013 448.309C178.45 448.309 177.995 449.944 177.995 451.96C177.995 453.976 178.45 455.611 179.013 455.611Z" fill="white"/>
<path d="M56.6083 792.417C56.7915 781.97 58.6909 773.394 60.5176 765.451C62.3443 757.508 63.9365 750.134 65.6635 742.521C69.5594 725.333 73.6142 708.576 77.7606 692.084C85.7948 660.12 93.9556 628.009 102.776 598.512C119.37 543.039 138.704 498.509 158.558 457.767C177.8 418.291 198.359 383.547 220.986 375.219C233.53 370.606 246.26 374.816 258.829 376.136C271.914 377.512 285.043 377.641 298.137 377.595C311.231 377.549 323.328 375.329 335.727 366.616C347.962 358.013 359.849 344.64 371.571 330.12C374.405 326.617 377.232 323.04 380.055 319.444C380.249 319.197 380.166 318.133 379.969 318.38C368.182 333.386 356.333 348.088 344.136 358.81C331.462 369.954 318.654 375.247 305.579 376.219C298.932 376.714 292.285 376.439 285.639 376.164C278.992 375.889 272.367 376.045 265.731 375.632C259.095 375.219 252.279 374.265 245.554 373.403C239.277 372.596 232.983 371.44 226.703 372.559C204.198 376.568 183.455 407.202 164.191 445.147C144.098 484.724 124.419 528.685 107.303 582.341C98.2744 610.646 90.1433 642.125 82.0606 673.502C77.7849 690.094 73.5846 706.916 69.519 724.104C65.8818 739.485 62.2069 755.05 58.8472 771.156C57.5135 777.549 56.4251 784.456 56.285 792.408C56.2715 793.114 56.5948 793.114 56.6083 792.408V792.417Z" fill="white"/>
<path d="M62.6918 792.662C66.9911 760.513 75.2753 736.726 82.5889 712.746C91.3544 684.01 100.187 655.651 109.364 628.442C118.197 602.264 127.231 577.29 137.018 555.379C146.381 534.425 156.184 515.872 166.176 498.68C171.325 489.822 176.493 480.835 181.851 473.532C187.21 466.228 192.693 460.525 198.288 456.119C209.541 447.261 221.081 443.858 232.603 442.597C256.925 439.921 281.267 441.668 305.595 440.077C329.924 438.486 354.088 433.629 377.892 417.798C380.828 415.848 383.756 413.714 386.671 411.424C386.873 411.268 386.786 410.201 386.585 410.357C362.474 429.269 337.74 435.984 313.062 438.366C288.46 440.739 263.841 438.918 239.236 440.868C227.682 441.779 216.126 443.591 204.725 450.517C193.324 457.444 182.895 469.549 172.65 486.52C152.35 520.149 132.888 558.764 115.613 608.693C106.197 635.902 96.9847 663.957 88.0687 693.08C84.1565 705.865 80.2389 718.642 76.3536 731.529C72.7237 743.57 69.1691 756.052 66.2033 770.107C64.7433 777.024 63.45 784.328 62.4121 792.091C62.3261 792.735 62.603 793.296 62.6918 792.652V792.662Z" fill="white"/>
</svg>
